<svg xmlns="http://www.w3.org/2000/svg" width="875.97" height="664.866" viewBox="0 0 875.97 664.866">
  <g id="Group_14" data-name="Group 14" transform="translate(-611 -215)">
    <g id="Group_1" data-name="Group 1" transform="translate(514 -75.952)">
      <text id="_04:45_05:15_06:00_06:15_06:45_07:00_07:45" data-name="04:45
05:15
06:00
06:15
06:45
07:00
07:45" transform="matrix(1, 0, 0, 1, 97, 368.818)" fill="#57c0e0" font-size="30" font-family="Montserrat-SemiBold, Montserrat" font-weight="600"><tspan x="14.811" y="29">04:45</tspan><tspan x="20.766" y="108.658">05:15</tspan><tspan x="14.406" y="188.316">06:00</tspan><tspan x="20.121" y="267.975">06:15</tspan><tspan x="15.696" y="347.633">06:45</tspan><tspan x="15.066" y="427.291">07:00</tspan><tspan x="16.356" y="506.95">07:45</tspan></text>
      <g id="Rounded_Rectangle_1" data-name="Rounded Rectangle 1" transform="translate(256 376.25)" fill="none" stroke="#57c0e0" stroke-width="2">
        <rect width="220.94" height="109.94" rx="20.5" stroke="none"/>
        <rect x="1" y="1" width="218.94" height="107.94" rx="19.5" fill="none"/>
      </g>
      <text id="Prelims" transform="matrix(1, 0, 0, 1, 367, 442.829)" fill="#57c0e0" font-size="28" font-family="Montserrat-SemiBold, Montserrat" font-weight="600"><tspan x="-54.446" y="0">Prelims</tspan></text>
      <g id="Rounded_Rectangle_1_copy_3" data-name="Rounded Rectangle 1 copy 3" transform="translate(256 696.776)" fill="none" stroke="#57c0e0" stroke-width="2">
        <rect width="220.94" height="195.88" rx="20.5" stroke="none"/>
        <rect x="1" y="1" width="218.94" height="193.88" rx="19.5" fill="none"/>
      </g>
      <text id="Finals_Round_1_" data-name="Finals
(Round 1)" transform="matrix(1, 0, 0, 1, 367, 780.943)" fill="#57c0e0" font-size="28" font-family="Montserrat-SemiBold, Montserrat" font-weight="600"><tspan x="-42.168" y="0">Finals</tspan><tspan x="-67.004" y="36">(Round 1)</tspan></text>
      <g id="Rounded_Rectangle_1_copy_2" data-name="Rounded Rectangle 1 copy 2" transform="translate(860 628.941)" fill="none" stroke="#57c0e0" stroke-width="2">
        <rect width="112.97" height="195.41" rx="20.5" stroke="none"/>
        <rect x="1" y="1" width="110.97" height="193.41" rx="19.5" fill="none"/>
      </g>
      <text id="Prelims-2" data-name="Prelims" transform="matrix(0, 1, -1, 0, 907, 723.629)" fill="#57c0e0" font-size="28" font-family="Montserrat-SemiBold, Montserrat" font-weight="600"><tspan x="-54.446" y="0">Prelims</tspan></text>
      <g id="Rounded_Rectangle_1_copy" data-name="Rounded Rectangle 1 copy" transform="translate(524 465.758)" fill="none" stroke="#57c0e0" stroke-width="2">
        <rect width="294.16" height="109.97" rx="20.5" stroke="none"/>
        <rect x="1" y="1" width="292.16" height="107.97" rx="19.5" fill="none"/>
      </g>
      <text id="Prelims-3" data-name="Prelims" transform="matrix(1, 0, 0, 1, 671, 532.058)" fill="#57c0e0" font-size="28" font-family="Montserrat-SemiBold, Montserrat" font-weight="600"><tspan x="-54.446" y="0">Prelims</tspan></text>
    </g>
    <text id="Time" transform="translate(668 254)" fill="rgba(0,197,255,0.81)" font-size="40" font-family="Montserrat-SemiBold, Montserrat" font-weight="600"><tspan x="-51.16" y="0">Time</tspan></text>
    <text id="Quiz" transform="translate(1431 254)" fill="rgba(0,197,255,0.81)" font-size="40" font-family="Montserrat-SemiBold, Montserrat" font-weight="600"><tspan x="-46.88" y="0">Quiz</tspan></text>
    <text id="Crossword" transform="translate(1185 254)" fill="rgba(0,197,255,0.81)" font-size="40" font-family="Montserrat-SemiBold, Montserrat" font-weight="600"><tspan x="-108.96" y="0">Crossword</tspan></text>
    <text id="Surprise" transform="translate(881 254)" fill="rgba(0,197,255,0.81)" font-size="40" font-family="Montserrat-SemiBold, Montserrat" font-weight="600"><tspan x="-85.04" y="0">Surprise</tspan></text>
  </g>
</svg>
